<svg width="638" height="581" viewBox="0 0 638 581" fill="none" xmlns="http://www.w3.org/2000/svg">
<g clip-path="url(#clip0)">
<path d="M222 560.681L404.206 522.908L423.559 526.984L344.843 543.803L241.352 564.758L222 560.681Z" fill="white"/>
<path d="M249.5 565.859L431.706 528.086L451.059 532.162L372.343 548.981L268.852 569.935L249.5 565.859Z" fill="white"/>
<path d="M275.228 571.824L457.434 534.051L476.786 538.127L398.07 554.946L294.58 575.9L275.228 571.824Z" fill="white"/>
<path d="M301.442 578.016L483.648 540.243L503 544.319L424.284 561.138L320.794 582.092L301.442 578.016Z" fill="white"/>
<path d="M381.486 555.601L472.14 536.868L489.486 541.101L447.486 550.101L394.986 561.601L381.486 555.601Z" fill="black"/>
<path d="M351.486 548.601L442.14 529.868L459.486 534.101L417.486 543.101L364.986 554.601L351.486 548.601Z" fill="black"/>
<path d="M324.486 542.601L415.14 523.868L432.486 528.101L390.486 537.101L337.986 548.601L324.486 542.601Z" fill="black"/>
<path d="M565.058 152.853C605.407 152.853 638.117 118.635 638.117 76.4263C638.117 34.2172 605.407 0 565.058 0C524.709 0 492 34.2172 492 76.4263C492 118.635 524.709 152.853 565.058 152.853Z" fill="#FF6584"/>
<path d="M317.844 503.476C383.82 503.476 437.304 447.526 437.304 378.508C437.304 309.491 383.82 253.541 317.844 253.541C251.867 253.541 198.383 309.491 198.383 378.508C198.383 447.526 251.867 503.476 317.844 503.476Z" fill="#3F3D56"/>
<path d="M242.636 388.54C245.603 384.824 249.313 381.836 253.506 379.785C257.698 377.734 262.269 376.671 266.897 376.671C271.525 376.671 276.097 377.734 280.289 379.785C284.481 381.836 288.192 384.824 291.159 388.54C296.235 383.47 299.744 376.926 301.233 369.751C302.722 362.576 302.122 355.099 299.512 348.284C296.901 341.468 292.4 335.627 286.587 331.512C280.774 327.398 273.916 325.199 266.897 325.199C259.879 325.199 253.021 327.398 247.208 331.512C241.395 335.627 236.893 341.468 234.283 348.284C231.672 355.099 231.073 362.576 232.561 369.751C234.05 376.926 237.559 383.47 242.636 388.54Z" fill="white"/>
<path d="M337.501 388.54C340.468 384.824 344.179 381.836 348.371 379.785C352.563 377.734 357.135 376.671 361.763 376.671C366.391 376.671 370.962 377.734 375.154 379.785C379.347 381.836 383.057 384.824 386.024 388.54C391.101 383.47 394.61 376.926 396.099 369.751C397.587 362.576 396.988 355.099 394.377 348.284C391.767 341.468 387.265 335.627 381.452 331.512C375.639 327.398 368.781 325.199 361.763 325.199C354.744 325.199 347.886 327.398 342.073 331.512C336.26 335.627 331.759 341.468 329.148 348.284C326.538 355.099 325.938 362.576 327.427 369.751C328.916 376.926 332.425 383.47 337.501 388.54Z" fill="white"/>
<path d="M254.911 362.082C261.586 362.082 266.998 356.421 266.998 349.439C266.998 342.456 261.586 336.795 254.911 336.795C248.236 336.795 242.825 342.456 242.825 349.439C242.825 356.421 248.236 362.082 254.911 362.082Z" fill="#3F3D56"/>
<path d="M349.774 362.082C356.449 362.082 361.86 356.421 361.86 349.439C361.86 342.456 356.449 336.795 349.774 336.795C343.099 336.795 337.687 342.456 337.687 349.439C337.687 356.421 343.099 362.082 349.774 362.082Z" fill="#3F3D56"/>
<path d="M231.762 424.452C239.524 424.452 245.816 417.87 245.816 409.75C245.816 401.631 239.524 395.048 231.762 395.048C224 395.048 217.708 401.631 217.708 409.75C217.708 417.87 224 424.452 231.762 424.452Z" fill="#FF6584"/>
<path d="M393.385 424.452C401.147 424.452 407.439 417.87 407.439 409.75C407.439 401.631 401.147 395.048 393.385 395.048C385.623 395.048 379.331 401.631 379.331 409.75C379.331 417.87 385.623 424.452 393.385 424.452Z" fill="#FF6584"/>
<path d="M312.573 380.346L302.032 428.128L319.6 409.75L312.573 380.346Z" fill="#FF6584"/>
<path d="M366.734 564.122L354.767 553.615L355.045 564.122H351.329L351.032 553.012L334.874 564.122H328.11L350.911 548.444L350.028 515.525L349.368 490.662L353.076 490.556L353.745 515.525L354.627 548.415L372.512 564.122H366.734Z" fill="#3F3D56"/>
<path d="M310.513 564.122L298.546 553.615L298.824 564.122H295.118L294.82 553.012L278.663 564.122H271.899L294.69 548.444L293.808 515.525L293.148 490.662L296.864 490.556L297.533 515.525L298.406 548.415L316.292 564.122H310.513Z" fill="#3F3D56"/>
<path d="M319.6 244.352C316.322 244.352 313.431 247.016 311.498 251.107C309.794 244.955 306.214 240.677 302.033 240.677C301.748 240.706 301.467 240.756 301.189 240.825C299.582 234.257 295.847 229.65 291.492 229.65C285.671 229.65 280.951 237.878 280.951 248.028C280.951 258.178 285.671 266.406 291.492 266.406C291.776 266.376 292.058 266.326 292.336 266.257C293.943 272.826 297.678 277.432 302.033 277.432C305.31 277.432 308.202 274.768 310.135 270.677C311.839 276.829 315.419 281.107 319.6 281.107C325.422 281.107 330.141 272.88 330.141 262.73C330.141 252.58 325.422 244.352 319.6 244.352Z" fill="#3F3D56"/>
<path d="M205.715 425.866C201.101 425.866 196.532 424.915 192.269 423.068C188.006 421.221 184.133 418.513 180.87 415.1C177.608 411.687 175.019 407.635 173.254 403.176C171.488 398.717 170.579 393.937 170.579 389.111V370.733C170.579 360.985 174.281 351.636 180.87 344.743C187.459 337.85 196.396 333.978 205.715 333.978V425.866Z" fill="#6C63FF"/>
<path d="M429.972 333.978C434.586 333.978 439.155 334.929 443.418 336.776C447.681 338.623 451.554 341.33 454.817 344.743C458.08 348.156 460.668 352.208 462.433 356.667C464.199 361.127 465.108 365.906 465.108 370.733V389.111C465.108 393.937 464.199 398.717 462.433 403.176C460.668 407.635 458.08 411.687 454.817 415.1C451.554 418.513 447.681 421.221 443.418 423.068C439.155 424.915 434.587 425.866 429.972 425.866V333.978H429.972Z" fill="#6C63FF"/>
<path d="M448.384 373.621H442.809C442.809 299.662 385.291 239.493 314.592 239.493C243.892 239.493 186.374 299.662 186.374 373.621H180.799C180.799 296.447 240.818 233.661 314.592 233.661C388.365 233.661 448.384 296.447 448.384 373.621Z" fill="#6C63FF"/>
<path d="M123.283 261.224L123.284 261.222L120.665 260.081L109.615 255.194L105.654 253.443L105.35 254.245L100.029 268.299L115.003 274.929L115.082 275.004L114.073 277.493C113.935 277.721 113.817 277.961 113.721 278.211C113.014 280.078 114.349 281.935 115.611 282.458C116.873 282.981 118.469 281.892 119.176 280.025C119.873 278.183 119.192 275.843 117.962 275.278L117.963 275.276L115.344 274.135L106.385 270.491L111.504 256.97L110.745 256.656L105.624 270.182L104.516 269.732L109.657 256.153L109.793 256.213L120.324 260.876L120.403 260.95L119.394 263.439C119.255 263.667 119.138 263.907 119.042 264.157C118.335 266.024 119.67 267.882 120.932 268.404C122.194 268.927 123.79 267.838 124.497 265.971C125.194 264.129 124.513 261.789 123.283 261.224Z" fill="#847ED9"/>
<path d="M175.112 295.726C169.676 292.475 170.764 285.341 170.764 285.341C170.627 280.706 166.967 281.362 166.967 281.362L165.634 281.68C165.015 281.379 164.334 281.248 163.653 281.297L161.627 281.653C166.241 282.788 165.862 286.826 165.862 286.826L166.509 291.548L154.417 286.445L155.805 283.021C155.997 282.704 156.161 282.37 156.294 282.023C157.276 279.43 155.422 276.85 153.669 276.124C151.916 275.398 149.699 276.911 148.717 279.504C147.749 282.062 148.695 285.312 150.403 286.097L150.402 286.1L154.039 287.684L154.067 287.595L175.112 295.726ZM168.972 287.43L169.359 291.949C167.99 289.94 167.347 287.487 167.544 285.028C167.512 284.153 167.23 283.309 166.734 282.603C167.496 283.114 168.109 283.835 168.503 284.687C168.898 285.538 169.06 286.488 168.972 287.43V287.43Z" fill="#847ED9"/>
<path d="M82.8743 228.884L82.8757 228.881L79.2382 227.297L64.0355 221.114L67.8725 217.543C68.6231 216.496 69.7316 215.794 70.9661 215.582C72.2006 215.371 73.4655 215.667 74.4962 216.408L73.3055 214.557C73.3055 214.557 71.067 211.457 67.9336 214.737C67.9336 214.737 64.0566 220.716 57.9667 219.192L78.7648 228.4L78.8739 228.504L77.4724 231.961C77.2805 232.277 77.1168 232.611 76.9834 232.958C76.0017 235.552 77.8559 238.131 79.6088 238.857C81.3617 239.583 83.5787 238.07 84.5605 235.477C85.5288 232.919 84.5824 229.67 82.8743 228.884Z" fill="#847ED9"/>
<path d="M138.532 208.651L137.13 212.107C136.938 212.424 136.775 212.758 136.641 213.105C135.659 215.698 137.514 218.278 139.267 219.004C141.019 219.73 143.237 218.217 144.218 215.624C145.187 213.066 144.24 209.816 142.532 209.031L142.534 209.028L138.896 207.443L126.453 202.383L133.562 183.604L132.509 183.167L125.396 201.954L123.857 201.328L130.998 182.468L131.186 182.551L145.813 189.028L145.922 189.131L144.52 192.588C144.328 192.904 144.165 193.238 144.031 193.586C143.049 196.179 144.904 198.758 146.657 199.485C148.41 200.211 150.627 198.697 151.608 196.104C152.577 193.546 151.63 190.297 149.922 189.512L149.924 189.509L146.286 187.924L131.421 181.35L131.42 181.35L130.938 181.137L125.437 178.704L117.625 199.339L138.423 208.547L138.532 208.651Z" fill="#847ED9"/>
<path d="M72.6224 102.973L72.625 102.968L66.3632 100.24L40.1926 89.5973L46.7978 83.4497C46.7978 83.4497 51.1914 77.0725 58.2001 81.4958L56.1505 78.3089C56.1505 78.3089 52.2969 72.9721 46.903 78.6186C46.903 78.6186 40.2289 88.9111 29.7456 86.2875L65.5481 102.139L65.7361 102.318L63.3235 108.268C62.9932 108.813 62.7115 109.388 62.4817 109.986C60.7917 114.45 63.9836 118.89 67.0012 120.141C70.0187 121.391 73.8351 118.785 75.5252 114.321C77.1921 109.918 75.563 104.325 72.6224 102.973Z" fill="#847ED9"/>
<path d="M91.8392 192.37C78.8424 184.597 81.4432 167.538 81.4432 167.538C81.1162 156.457 72.3639 158.025 72.3639 158.025L69.1786 158.786C67.6988 158.067 66.0695 157.752 64.442 157.869L59.5965 158.722C70.63 161.434 69.7235 171.09 69.7235 171.09L71.2692 182.379L42.3585 170.179L45.6779 161.991C46.1367 161.235 46.5281 160.437 46.8472 159.606C49.1945 153.406 44.7611 147.239 40.57 145.502C36.3789 143.766 31.0784 147.384 28.7311 153.584C26.4157 159.7 28.6785 167.469 32.7626 169.346L32.7592 169.354L41.4561 173.142L41.5209 172.928L91.8392 192.37ZM77.1578 172.533L78.0881 183.377C72.6295 175.797 73.7452 166.791 73.7452 166.791C73.6683 164.7 72.9938 162.68 71.809 160.994C78.0794 164.919 77.1578 172.533 77.1578 172.533H77.1578Z" fill="#847ED9"/>
</g>
<defs>
<clipPath id="clip0">
<rect width="638" height="581" fill="white"/>
</clipPath>
</defs>
</svg>
