<svg width="82" height="82" viewBox="0 0 82 82" fill="none" xmlns="http://www.w3.org/2000/svg">
<path d="M40.9205 1.5C62.689 1.5 80.3409 19.182 80.3409 41C80.3409 62.818 62.689 80.5 40.9205 80.5C19.1519 80.5 1.5 62.818 1.5 41C1.5 19.182 19.1519 1.5 40.9205 1.5Z" stroke="url(#paint0_linear)" stroke-width="3"/>
<path d="M29.8964 55.4605L29.8981 55.4605L29.9104 53.3958L30.0094 44.6636L30.0449 41.5336L29.4357 41.5602L18.7723 42.0261L18.6329 53.8614L18.6062 53.9349L16.699 53.973C16.5117 53.9461 16.3218 53.9362 16.1316 53.9436C14.7149 54.0055 13.8759 55.4211 13.8877 56.4084C13.8994 57.3957 15.0572 58.146 16.4739 58.084C17.8712 58.023 19.208 56.9043 19.233 55.9263L19.2347 55.9264L19.247 53.8617L19.1192 46.8726L29.3784 46.4244L29.3713 45.8309L19.1084 46.2793L19.0926 45.4151L29.3956 44.965L29.3943 45.072L29.2963 53.3956L29.2697 53.4689L27.3625 53.5072C27.1752 53.4802 26.9852 53.4704 26.795 53.4778C25.3784 53.5396 24.5394 54.9552 24.5511 55.9425C24.5628 56.9298 25.7207 57.6801 27.1373 57.6181C28.5347 57.5571 29.8714 56.4384 29.8964 55.4605Z" fill="url(#paint1_linear)"/>
<path d="M56.1691 30.9726L56.1707 30.9731L56.6523 28.9673L58.7353 20.4956L59.4818 17.459L58.8832 17.3414L48.4034 15.2826L45.5752 26.7636L45.5326 26.8287L43.6685 26.4166C43.4925 26.3462 43.31 26.2919 43.1232 26.2543C41.731 25.9808 40.5927 27.1603 40.3795 28.1235C40.1663 29.0867 41.122 30.0894 42.5143 30.3629C43.8876 30.6327 45.4425 29.8593 45.6893 28.9137L45.691 28.9142L46.1726 26.9085L47.6383 20.0792L57.7208 22.06L57.8489 21.4809L47.7628 19.4995L47.944 18.655L58.0696 20.6442L58.044 20.748L56.055 28.8224L56.0124 28.8875L54.1483 28.4754C53.9723 28.4051 53.7897 28.3507 53.603 28.3131C52.2107 28.0396 51.0725 29.2191 50.8593 30.1823C50.6461 31.1455 51.6018 32.1482 52.994 32.4217C54.3673 32.6915 55.9223 31.9181 56.1691 30.9726Z" fill="url(#paint2_linear)"/>
<path d="M67.7593 41.372L67.76 41.3722L67.9639 40.5229L68.846 36.9354L69.1621 35.6495L68.9086 35.5997L64.4708 34.7278L63.2732 39.5896L63.2551 39.6172L62.4657 39.4427C62.3912 39.4129 62.3139 39.3899 62.2348 39.374C61.6452 39.2582 61.1632 39.7576 61.073 40.1655C60.9827 40.5734 61.3874 40.998 61.9769 41.1138C62.5585 41.2281 63.217 40.9006 63.3215 40.5002L63.3222 40.5004L63.5261 39.651L64.1468 36.759L68.4164 37.5978L68.4706 37.3526L64.1995 36.5135L64.2762 36.1559L68.5641 36.9983L68.5532 37.0423L67.711 40.4615L67.6929 40.4891L66.9035 40.3146C66.829 40.2848 66.7517 40.2618 66.6726 40.2458C66.083 40.13 65.601 40.6295 65.5108 41.0374C65.4205 41.4453 65.8252 41.8698 66.4148 41.9857C66.9963 42.0999 67.6548 41.7724 67.7593 41.372Z" fill="url(#paint3_linear)"/>
<path d="M48.4441 56.747L48.4448 56.7472L48.6487 55.8979L49.5308 52.3104L49.8469 51.0245L49.5934 50.9747L45.1556 50.1028L43.958 54.9646L43.9399 54.9922L43.1505 54.8177C43.076 54.7879 42.9987 54.7649 42.9196 54.749C42.33 54.6332 41.848 55.1326 41.7578 55.5405C41.6675 55.9484 42.0722 56.373 42.6618 56.4888C43.2433 56.6031 43.9018 56.2756 44.0063 55.8752L44.007 55.8754L44.2109 55.026L44.8316 52.134L49.1012 52.9728L49.1555 52.7276L44.8843 51.8885L44.9611 51.5309L49.2489 52.3733L49.238 52.4173L48.3958 55.8365L48.3777 55.8641L47.5884 55.6896C47.5138 55.6598 47.4365 55.6368 47.3574 55.6208C46.7679 55.505 46.2859 56.0045 46.1956 56.4124C46.1053 56.8203 46.51 57.2448 47.0996 57.3607C47.6811 57.4749 48.3396 57.1474 48.4441 56.747Z" fill="url(#paint4_linear)"/>
<path d="M25.7804 24.7158L25.7811 24.716L25.9851 23.8666L26.8671 20.2791L27.1833 18.9932L26.9297 18.9434L22.4919 18.0716L21.2943 22.9334L21.2763 22.961L20.4869 22.7864C20.4123 22.7567 20.335 22.7337 20.256 22.7177C19.6664 22.6019 19.1844 23.1014 19.0941 23.5093C19.0038 23.9172 19.4085 24.3418 19.9981 24.4576C20.5796 24.5718 21.2381 24.2443 21.3426 23.8439L21.3433 23.8441L21.5473 22.9948L22.1679 20.1028L26.4375 20.9416L26.4918 20.6964L22.2206 19.8573L22.2974 19.4997L26.5852 20.3421L26.5744 20.386L25.7321 23.8052L25.7141 23.8328L24.9247 23.6583C24.8502 23.6285 24.7729 23.6055 24.6938 23.5896C24.1042 23.4737 23.6222 23.9732 23.5319 24.3811C23.4416 24.789 23.8463 25.2136 24.4359 25.3294C25.0174 25.4437 25.6759 25.1162 25.7804 24.7158Z" fill="url(#paint5_linear)"/>
<defs>
<linearGradient id="paint0_linear" x1="0" y1="41" x2="81.8409" y2="41" gradientUnits="userSpaceOnUse">
<stop stop-color="#FF6584"/>
<stop offset="1" stop-color="#6C63FF"/>
</linearGradient>
<linearGradient id="paint1_linear" x1="31.9329" y1="46.0173" x2="12.8029" y2="54.0727" gradientUnits="userSpaceOnUse">
<stop stop-color="#6C63FF"/>
<stop offset="0.0001" stop-color="#6C63FF"/>
<stop offset="1" stop-color="#FF6584"/>
</linearGradient>
<linearGradient id="paint2_linear" x1="60.2985" y1="22.2657" x2="39.8793" y2="25.7351" gradientUnits="userSpaceOnUse">
<stop stop-color="#6C63FF"/>
<stop offset="0.0001" stop-color="#6C63FF"/>
<stop offset="1" stop-color="#FF6584"/>
</linearGradient>
<linearGradient id="paint3_linear" x1="69.508" y1="37.6849" x2="60.8611" y2="39.1541" gradientUnits="userSpaceOnUse">
<stop stop-color="#6C63FF"/>
<stop offset="0.0001" stop-color="#6C63FF"/>
<stop offset="1" stop-color="#FF6584"/>
</linearGradient>
<linearGradient id="paint4_linear" x1="50.1928" y1="53.0599" x2="41.5459" y2="54.5291" gradientUnits="userSpaceOnUse">
<stop stop-color="#6C63FF"/>
<stop offset="0.0001" stop-color="#6C63FF"/>
<stop offset="1" stop-color="#FF6584"/>
</linearGradient>
<linearGradient id="paint5_linear" x1="27.5291" y1="21.0287" x2="18.8823" y2="22.4979" gradientUnits="userSpaceOnUse">
<stop stop-color="#6C63FF"/>
<stop offset="0.0001" stop-color="#6C63FF"/>
<stop offset="1" stop-color="#FF6584"/>
</linearGradient>
</defs>
</svg>
